<svg xmlns="http://www.w3.org/2000/svg" width="36" height="7" viewBox="0 0 370 69">
<path fill="#6F62F8" d="M21.5 4.2C23.8 4.3 26.1 4.3 28.4 4.3C28.6 6.7 28.6 9.1 28.5 11.5C24.4 11.5 20.3 11.5 16.2 11.5C14.2 11.5 12.2 11.4 10.2 11.5C7.9 11.6 7.1 12.8 6.6 14.5C7.4 17.7 9.8 17.2 12.2 17.2L18.9 17.1C21.0 17.1 23.0 17.2 24.6 18.5C25.7 19.4 26.2 20.7 26.2 22.1C26.2 24.4 24.7 26.5 22.4 27.1C20.2 27.6 17.8 27.4 15.5 27.4C13.8 27.4 12.1 27.4 10.4 27.4C10.4 28.2 10.4 29.0 10.4 29.8C9.2 28.6 8.0 27.4 6.8 26.1C7.5 25.4 8.8 24.0 9.3 23.3L9.4 25.3C13.0 25.2 16.7 25.3 20.3 25.2C20.8 25.2 21.8 25.2 22.2 24.8C23.3 23.6 23.6 21.6 22.2 20.7C21.2 20.2 20.1 20.3 19.0 20.2C16.5 20.0 12.4 20.5 9.7 20.1C8.7 19.9 7.8 19.5 7.1 18.8C4.0 15.8 5.1 10.3 8.5 8.8C9.5 8.3 10.1 8.3 11.2 8.2C14.7 8.1 18.1 4.1 21.5 4.2Z"/>
<path d="M116.3 4.2C117.8 4.2 119.3 4.2 120.8 4.2C123.8 4.2 127.4 4.0 129.8 6.1C134.1 9.8 133.0 16.2 128.4 18.6C134.6 20.4 136.2 26.8 131.8 29.4C130.5 30.1 129.0 30.5 127.5 30.7C125.0 31.1 122.2 31.0 119.8 31.0L111.8 31.0C111.8 30.4 111.8 29.8 111.8 29.2L119.4 29.2C121.5 29.2 124.8 29.3 126.3 28.9C127.0 28.7 127.6 28.3 128.0 27.8C129.3 26.4 129.4 23.8 128.0 22.4C126.3 20.8 122.7 21.5 120.6 21.4C120.7 20.4 120.7 19.4 120.7 18.4C123.2 18.4 127.5 18.7 128.4 17.3C131.6 13.8 128.4 10.1 124.0 10.7C122.4 10.9 119.4 10.7 118.2 10.6C118.2 16.8 118.2 23.0 118.2 29.2C116.9 29.1 115.6 29.1 114.3 29.1C114.3 22.8 114.3 16.5 114.3 10.2C114.3 8.3 114.2 6.2 114.4 4.3L116.3 4.2Z"/>
<path fill="#6F62F8" d="M33.8 4.1C35.1 4.2 36.4 4.2 37.7 4.2C37.8 8.3 37.8 12.4 37.7 16.5C37.7 18.5 37.6 20.8 37.8 22.8C36.9 22.7 36.0 22.7 35.1 22.8C35.0 20.5 35.1 18.0 35.1 15.7C35.1 12.7 35.0 9.4 35.2 6.4L33.6 8.4C32.9 9.6 31.9 11.0 31.1 12.2C29.1 15.6 27.0 19.0 25.0 22.4C24.4 22.4 23.8 22.4 23.3 22.4C22.9 21.8 22.1 20.8 22.4 20.0C23.4 17.8 24.6 15.7 25.7 13.5L35.3 4.4C35.6 4.0 35.7 3.9 36.8 3.7L33.8 4.1Z"/>
<path fill="#6F62F8" d="M20.5 4.1C21.8 4.1 23.6 4.0 24.8 4.2C26.5 7.0 28.1 9.8 29.6 12.7C30.3 14.0 31.8 16.4 32.4 17.7C32.1 18.7 30.9 20.5 30.2 21.4C27.9 18.8 24.8 14.7 23.0 11.5C22.9 12.4 23.0 13.6 23.0 14.5C22.9 20.2 23.0 25.9 23.0 31.6C22.2 31.5 21.3 31.6 20.5 31.6C20.3 25.4 20.6 19.1 20.5 12.9C20.5 10.0 20.5 7.0 20.5 4.1Z"/>
<path d="M93.6 4.3C94.5 4.3 95.6 4.3 96.5 4.3C96.6 7.0 96.5 9.8 96.5 12.5L96.5 31.3C95.6 31.3 94.6 31.3 93.7 31.3C93.6 28.8 93.6 26.1 93.6 23.6L93.6 20.6L82.7 20.6C82.7 19.8 82.7 18.8 82.7 18.0L93.6 18.0C93.5 15.9 93.6 13.6 93.6 11.5C93.6 10.1 93.5 8.2 93.6 4.3Z"/>
<path fill="#B783FE" d="M71.5 6.3C72.2 6.7 76.9 22.8 77.4 24.5C76.1 24.4 74.9 24.4 73.6 24.5C73.0 23.4 72.5 22.1 72.1 21.0C71.7 20.0 70.8 18.1 70.6 17.3C69.1 17.4 65.3 17.2 63.5 17.2C63.6 16.7 64.3 15.6 64.8 15.3C65.9 14.6 69.0 15.2 69.6 14.6C69.6 14.2 68.7 12.6 68.4 11.9C66.8 8.6 65.7 7.6 67.1 6.3L71.5 6.3Z"/>
<path d="M99.0 4.3C100.1 4.3 101.2 4.3 102.3 4.3C102.4 7.5 102.3 10.8 102.3 14.0C102.3 18.4 102.2 23.1 109.0 24.2C109.0 25.3 109.0 26.5 109.0 27.6C106.1 27.2 104.0 26.4 102.4 24.2C98.5 19.9 99.0 14.2 98.9 9.8C98.9 8.0 98.8 6.1 99.0 4.3Z"/>
<path d="M110.5 4.3C111.4 4.3 112.4 4.3 113.3 4.3C113.4 6.7 113.4 9.2 113.4 11.6C113.4 14.0 113.5 17.1 113.3 19.4C113.2 20.5 113.0 21.6 112.7 22.6C111.4 26.4 109.5 28.1 105.9 29.7C104.8 30.2 104.2 30.3 103.0 30.5C103.0 29.4 103.0 28.2 103.0 27.1C106.6 25.8 109.3 23.5 110.3 19.5C112.4 13.5 110.3 6.8 110.5 4.3Z"/>
<path fill="#B783FE" d="M68.6 4.2C69.7 4.1 70.9 4.2 72.2 4.1C71.1 7.1 68.8 12.4 67.5 15.4L63.0 25.5C62.1 27.3 61.2 29.5 60.1 31.1C59.9 31.4 59.5 31.4 59.1 31.4C57.9 31.4 56.5 31.5 55.3 31.4C55.5 30.7 55.9 29.8 56.3 29.1C59.5 22.3 62.6 15.4 66.2 8.7C67.0 7.2 67.6 5.6 68.3 4.0C68.4 3.8 68.5 3.8 68.6 4.2Z"/>
<path d="M84.0 4.3L87.1 4.3C87.3 6.5 87.1 9.5 87.1 11.8L87.1 31.3C86.2 31.2 85.3 31.2 84.4 31.3C84.3 25.3 84.3 19.4 84.4 13.4C84.4 11.0 84.1 8.0 84.0 4.3Z"/>
<path fill="#6F62F8" d="M43.8 4.2C45.7 4.1 48.9 4.2 50.8 4.2C50.8 5.0 50.8 6.0 50.8 6.8C48.1 6.7 45.2 6.8 42.5 6.7C41.2 6.7 39.8 6.8 38.5 6.6C38.6 8.0 38.5 9.5 38.5 10.9C37.5 10.8 36.5 10.8 35.5 10.9C35.3 8.4 35.4 5.7 35.4 4.3C38.2 4.3 41.0 4.2 43.8 4.2Z"/>
<path fill="#B783FE" d="M52.2 4.1C56.0 4.0 60.1 4.2 63.9 4.1C65.6 4.1 68.5 4.3 69.8 4.1C69.8 5.0 69.8 5.9 69.8 6.8C69.2 6.8 68.2 6.8 67.6 6.8C62.2 6.9 56.7 6.8 51.3 6.8C48.3 6.9 45.2 6.8 42.2 6.9C42.2 6.0 42.2 5.0 42.2 4.2L52.2 4.1Z"/>
<path fill="#B783FE" d="M55.5 9.5C56.6 9.6 57.9 9.5 59.0 9.5C58.9 12.2 59.2 31.2 58.8 31.6C57.6 31.5 56.4 31.6 55.3 31.8C55.3 30.4 55.2 28.7 55.2 27.3L55.5 9.5Z"/>
<path fill="#6F62F8" d="M35.5 15.0C41.7 14.9 48.0 15.0 54.3 15.0L54.3 18.0C52.4 17.9 49.1 18.0 47.0 18.0C44.9 18.0 40.7 18.1 38.8 17.9C38.7 19.7 38.7 21.5 38.8 23.3C37.3 23.2 36.2 23.2 35.5 23.3C35.4 20.5 35.4 17.7 35.5 15.0Z"/>
<path fill="#6F62F8" d="M40.2 28.4C41.7 28.3 43.8 28.4 45.4 28.4L54.7 28.5L54.6 31.4L51.8 31.3L44.6 31.3C42.4 31.3 39.4 31.2 37.4 31.4C37.4 30.4 37.4 29.4 37.4 28.5L40.2 28.4Z"/>
<path d="M118.0 3.8C119.3 3.8 122.2 3.7 123.0 3.9C122.5 4.2 119.0 4.0 118.1 4.0C116.9 4.0 113.5 3.8 112.7 3.9C113.1 3.8 118.0 3.8 118.0 3.8ZM122.9 3.9C122.2 3.8 117.8 3.7 117.4 3.9C118.1 4.0 122.0 3.9 122.9 3.9Z"/>
</svg>
